# xmcd
#
# Track frame offsets:
#	150
#	18679
#	47306
#	69499
#	97915
#	137396
#	153808
#	179506
#
# Disc length: 2568 seconds
#
# Revision: 0
# Processed by: cddbd v1.5.2PL0 Copyright (c) Steve Scherf et al.
# Submitted via: EasyCDDAExtractor 10.2.0.1
#
DISCID=590a0608
DTITLE=Buddy Guy and Junior Wells - Drinkin' TNT 'N' Smokin' Dynamite
DYEAR=1982
DGENRE=Blues
TTITLE0=Ah'w Baby/Everything Gonna Be Alright (Live)
TTITLE1=How Can One Woman Be So Mean (Live)
TTITLE2=Checkin' On My Baby (Live)
TTITLE3=When You See The Tears From My Eyes (Live)
TTITLE4=Ten Years Ago (Live)
TTITLE5=Messing With The Kid (Live)
TTITLE6=Hoodoo Man Blues (Live)
TTITLE7=My Younger Days (Live)
EXTD=
EXTT0=
EXTT1=
EXTT2=
EXTT3=
EXTT4=
EXTT5=
EXTT6=
EXTT7=
PLAYORDER=
